<?xml version="1.0" encoding="UTF-8" standalone="no"?>
<!-- Created with Inkscape (http://www.inkscape.org/) -->
<svg
   xmlns:dc="http://purl.org/dc/elements/1.1/"
   xmlns:cc="http://creativecommons.org/ns#"
   xmlns:rdf="http://www.w3.org/1999/02/22-rdf-syntax-ns#"
   xmlns:svg="http://www.w3.org/2000/svg"
   xmlns="http://www.w3.org/2000/svg"
   xmlns:xlink="http://www.w3.org/1999/xlink"
   xmlns:sodipodi="http://sodipodi.sourceforge.net/DTD/sodipodi-0.dtd"
   xmlns:inkscape="http://www.inkscape.org/namespaces/inkscape"
   id="svg2"
   sodipodi:version="0.32"
   inkscape:version="0.46"
   width="74.571373"
   height="184.06599"
   version="1.0"
   sodipodi:docname="family1-daddy4.svg"
   inkscape:output_extension="org.inkscape.output.svg.inkscape"
   style="display:inline;enable-background:new">
  <metadata
     id="metadata7">
    <rdf:RDF>
      <cc:Work
         rdf:about="">
        <dc:format>image/svg+xml</dc:format>
        <dc:type
           rdf:resource="http://purl.org/dc/dcmitype/StillImage" />
      </cc:Work>
    </rdf:RDF>
  </metadata>
  <defs
     id="defs5">
    <linearGradient
       id="linearGradient3753">
      <stop
         style="stop-color:#c17d11;stop-opacity:1;"
         offset="0"
         id="stop3755" />
      <stop
         id="stop3763"
         offset="0.28503889"
         style="stop-color:#e9b96e;stop-opacity:1;" />
      <stop
         style="stop-color:#c17d11;stop-opacity:1;"
         offset="0.50332338"
         id="stop3765" />
      <stop
         id="stop3767"
         offset="0.71563524"
         style="stop-color:#e9b96e;stop-opacity:1;" />
      <stop
         style="stop-color:#c17d11;stop-opacity:1;"
         offset="1"
         id="stop3757" />
    </linearGradient>
    <linearGradient
       id="linearGradient3725">
      <stop
         style="stop-color:#cf6935;stop-opacity:1;"
         offset="0"
         id="stop3727" />
      <stop
         style="stop-color:#945637;stop-opacity:1;"
         offset="1"
         id="stop3729" />
    </linearGradient>
    <linearGradient
       id="linearGradient3524">
      <stop
         style="stop-color:#3465a4;stop-opacity:1;"
         offset="0"
         id="stop3526" />
      <stop
         id="stop3534"
         offset="0.22506231"
         style="stop-color:#5184c5;stop-opacity:1;" />
      <stop
         style="stop-color:#386caf;stop-opacity:1;"
         offset="0.52462614"
         id="stop3536" />
      <stop
         id="stop3532"
         offset="0.77431464"
         style="stop-color:#5184c5;stop-opacity:1;" />
      <stop
         style="stop-color:#3465a4;stop-opacity:1;"
         offset="1"
         id="stop3528" />
    </linearGradient>
    <inkscape:perspective
       sodipodi:type="inkscape:persp3d"
       inkscape:vp_x="0 : 94.5 : 1"
       inkscape:vp_y="0 : 1000 : 0"
       inkscape:vp_z="162 : 94.5 : 1"
       inkscape:persp3d-origin="81 : 63 : 1"
       id="perspective151" />
    <linearGradient
       id="linearGradient2251">
      <stop
         id="stop2253"
         offset="0"
         style="stop-color: rgb(155, 62, 27); stop-opacity: 1;" />
      <stop
         style="stop-color: rgb(155, 62, 27); stop-opacity: 0.731959;"
         offset="0.36107188"
         id="stop2259" />
      <stop
         id="stop2261"
         offset="0.59470665"
         style="stop-color: rgb(155, 62, 27); stop-opacity: 0.247059;" />
      <stop
         style="stop-color: rgb(155, 62, 27); stop-opacity: 0.121569;"
         offset="0.71050477"
         id="stop2263" />
      <stop
         id="stop2255"
         offset="1"
         style="stop-color: rgb(155, 62, 27); stop-opacity: 0;" />
    </linearGradient>
    <linearGradient
       id="linearGradient4399">
      <stop
         id="stop4401"
         offset="0"
         style="stop-color: rgb(250, 232, 208); stop-opacity: 1;" />
      <stop
         id="stop4403"
         offset="1"
         style="stop-color: rgb(229, 200, 180); stop-opacity: 1;" />
    </linearGradient>
    <filter
       inkscape:collect="always"
       id="filter3027">
      <feBlend
         inkscape:collect="always"
         mode="lighten"
         in2="BackgroundImage"
         id="feBlend3029" />
    </filter>
    <linearGradient
       gradientUnits="userSpaceOnUse"
       y2="283.50299"
       x2="631.10602"
       y1="320.64584"
       x1="546.13843"
       id="linearGradient11760"
       xlink:href="#linearGradient11754"
       inkscape:collect="always" />
    <radialGradient
       gradientUnits="userSpaceOnUse"
       gradientTransform="matrix(1,0,0,0.474624,0,127.405)"
       r="224.85068"
       fy="222.48161"
       fx="502.82346"
       cy="222.48161"
       cx="502.82346"
       id="radialGradient9978"
       xlink:href="#linearGradient9972"
       inkscape:collect="always" />
    <radialGradient
       r="336.7695"
       fy="2186.678"
       fx="378.62122"
       cy="2186.678"
       cx="378.62122"
       gradientTransform="matrix(-1.43537,2.92002e-7,-6.14818e-8,-0.263691,922.085,843.663)"
       gradientUnits="userSpaceOnUse"
       id="radialGradient8192"
       xlink:href="#linearGradient8194"
       inkscape:collect="always" />
    <radialGradient
       gradientUnits="userSpaceOnUse"
       gradientTransform="matrix(-0.862399,1.36421e-6,-5.67292e-7,-0.35709,705.146,1042.56)"
       r="336.7695"
       fy="747.50793"
       fx="378.62222"
       cy="747.50793"
       cx="378.62222"
       id="radialGradient7303"
       xlink:href="#linearGradient6382"
       inkscape:collect="always" />
    <radialGradient
       r="64.649765"
       fy="588.70215"
       fx="214.15234"
       cy="588.70215"
       cx="214.15234"
       gradientUnits="userSpaceOnUse"
       id="radialGradient6400"
       xlink:href="#linearGradient6382"
       inkscape:collect="always" />
    <radialGradient
       r="64.649765"
       fy="588.70215"
       fx="214.15234"
       cy="588.70215"
       cx="214.15234"
       gradientUnits="userSpaceOnUse"
       id="radialGradient6398"
       xlink:href="#linearGradient6382"
       inkscape:collect="always" />
    <linearGradient
       id="linearGradient6382"
       inkscape:collect="always">
      <stop
         id="stop6384"
         offset="0"
         style="stop-color: rgb(226, 185, 167); stop-opacity: 1;" />
      <stop
         id="stop6386"
         offset="1"
         style="stop-color: rgb(226, 185, 167); stop-opacity: 0;" />
    </linearGradient>
    <linearGradient
       id="linearGradient7289">
      <stop
         id="stop7291"
         offset="0"
         style="stop-color: rgb(232, 205, 186); stop-opacity: 1;" />
      <stop
         id="stop7293"
         offset="1"
         style="stop-color: rgb(232, 205, 186); stop-opacity: 0;" />
    </linearGradient>
    <linearGradient
       id="linearGradient7297">
      <stop
         id="stop7299"
         offset="0"
         style="stop-color: rgb(157, 218, 156); stop-opacity: 1;" />
      <stop
         id="stop7301"
         offset="1"
         style="stop-color: rgb(218, 182, 156); stop-opacity: 0;" />
    </linearGradient>
    <linearGradient
       inkscape:collect="always"
       id="linearGradient8194">
      <stop
         style="stop-color: rgb(226, 185, 167); stop-opacity: 1;"
         offset="0"
         id="stop8196" />
      <stop
         style="stop-color: rgb(226, 185, 167); stop-opacity: 0;"
         offset="1"
         id="stop8198" />
    </linearGradient>
    <linearGradient
       id="linearGradient9972"
       inkscape:collect="always">
      <stop
         id="stop9974"
         offset="0"
         style="stop-color: rgb(224, 146, 36); stop-opacity: 1;" />
      <stop
         id="stop9976"
         offset="1"
         style="stop-color: rgb(224, 146, 36); stop-opacity: 0;" />
    </linearGradient>
    <linearGradient
       id="linearGradient11754"
       inkscape:collect="always">
      <stop
         id="stop11756"
         offset="0"
         style="stop-color: rgb(227, 152, 39); stop-opacity: 1;" />
      <stop
         id="stop11758"
         offset="1"
         style="stop-color: rgb(227, 152, 39); stop-opacity: 0;" />
    </linearGradient>
    <linearGradient
       id="linearGradient2719">
      <stop
         style="stop-color: rgb(157, 218, 156); stop-opacity: 1;"
         offset="0"
         id="stop2721" />
      <stop
         style="stop-color: rgb(218, 182, 156); stop-opacity: 0;"
         offset="1"
         id="stop2723" />
    </linearGradient>
    <linearGradient
       id="linearGradient2713">
      <stop
         style="stop-color: rgb(232, 205, 186); stop-opacity: 1;"
         offset="0"
         id="stop2715" />
      <stop
         style="stop-color: rgb(232, 205, 186); stop-opacity: 0;"
         offset="1"
         id="stop2717" />
    </linearGradient>
    <radialGradient
       inkscape:collect="always"
       xlink:href="#linearGradient6382"
       id="radialGradient2705"
       gradientUnits="userSpaceOnUse"
       cx="214.15234"
       cy="588.70215"
       fx="214.15234"
       fy="588.70215"
       r="64.649765" />
    <radialGradient
       inkscape:collect="always"
       xlink:href="#linearGradient6382"
       id="radialGradient2703"
       gradientUnits="userSpaceOnUse"
       cx="214.15234"
       cy="588.70215"
       fx="214.15234"
       fy="588.70215"
       r="64.649765" />
    <radialGradient
       inkscape:collect="always"
       xlink:href="#linearGradient6382"
       id="radialGradient2701"
       cx="378.62222"
       cy="747.50793"
       fx="378.62222"
       fy="747.50793"
       r="336.7695"
       gradientTransform="matrix(-0.862399,1.36421e-6,-5.67292e-7,-0.35709,705.146,1042.56)"
       gradientUnits="userSpaceOnUse" />
    <radialGradient
       inkscape:collect="always"
       xlink:href="#linearGradient8194"
       id="radialGradient2699"
       gradientUnits="userSpaceOnUse"
       gradientTransform="matrix(-1.43537,2.92002e-7,-6.14818e-8,-0.263691,922.085,843.663)"
       cx="378.62122"
       cy="2186.678"
       fx="378.62122"
       fy="2186.678"
       r="336.7695" />
    <radialGradient
       inkscape:collect="always"
       xlink:href="#linearGradient9972"
       id="radialGradient2697"
       cx="502.82346"
       cy="222.48161"
       fx="502.82346"
       fy="222.48161"
       r="224.85068"
       gradientTransform="matrix(1,0,0,0.474624,0,127.405)"
       gradientUnits="userSpaceOnUse" />
    <linearGradient
       inkscape:collect="always"
       xlink:href="#linearGradient11754"
       id="linearGradient2695"
       x1="546.13843"
       y1="320.64584"
       x2="631.10602"
       y2="283.50299"
       gradientUnits="userSpaceOnUse" />
    <linearGradient
       id="linearGradient2685">
      <stop
         style="stop-color: rgb(250, 232, 208); stop-opacity: 1;"
         offset="0"
         id="stop2687" />
      <stop
         style="stop-color: rgb(229, 200, 180); stop-opacity: 1;"
         offset="1"
         id="stop2689" />
    </linearGradient>
    <linearGradient
       id="linearGradient2673">
      <stop
         style="stop-color: rgb(155, 62, 27); stop-opacity: 1;"
         offset="0"
         id="stop2675" />
      <stop
         id="stop2677"
         offset="0.36107188"
         style="stop-color: rgb(155, 62, 27); stop-opacity: 0.731959;" />
      <stop
         style="stop-color: rgb(155, 62, 27); stop-opacity: 0.247059;"
         offset="0.59470665"
         id="stop2679" />
      <stop
         id="stop2681"
         offset="0.71050477"
         style="stop-color: rgb(155, 62, 27); stop-opacity: 0.121569;" />
      <stop
         style="stop-color: rgb(155, 62, 27); stop-opacity: 0;"
         offset="1"
         id="stop2683" />
    </linearGradient>
    <radialGradient
       inkscape:collect="always"
       xlink:href="#linearGradient2251"
       id="radialGradient2671"
       cx="-273.84509"
       cy="91.583633"
       fx="-273.84509"
       fy="91.583633"
       r="440.93701"
       gradientTransform="matrix(1,0,0,1.05263,0,-4.82019)"
       gradientUnits="userSpaceOnUse" />
    <radialGradient
       inkscape:collect="always"
       xlink:href="#linearGradient2251"
       id="radialGradient2669"
       gradientUnits="userSpaceOnUse"
       gradientTransform="matrix(1,0,0,1.05263,0,-4.82019)"
       cx="-273.84509"
       cy="91.583633"
       fx="-273.84509"
       fy="91.583633"
       r="440.93701" />
    <radialGradient
       inkscape:collect="always"
       xlink:href="#linearGradient4399"
       id="radialGradient2667"
       cx="-315.73877"
       cy="436.39151"
       fx="-315.73877"
       fy="436.39151"
       r="337.98645"
       gradientTransform="matrix(0.683557,0,0,0.723514,474.65,-41.0505)"
       gradientUnits="userSpaceOnUse" />
    <inkscape:perspective
       id="perspective2664"
       inkscape:persp3d-origin="35.098743 : 18.352299 : 1"
       inkscape:vp_z="70.197487 : 27.528448 : 1"
       inkscape:vp_y="0 : 1000 : 0"
       inkscape:vp_x="0 : 27.528448 : 1"
       sodipodi:type="inkscape:persp3d" />
    <linearGradient
       id="linearGradient3545">
      <stop
         style="stop-color: rgb(157, 218, 156); stop-opacity: 1;"
         offset="0"
         id="stop3547" />
      <stop
         style="stop-color: rgb(218, 182, 156); stop-opacity: 0;"
         offset="1"
         id="stop3549" />
    </linearGradient>
    <linearGradient
       id="linearGradient3539">
      <stop
         style="stop-color: rgb(232, 205, 186); stop-opacity: 1;"
         offset="0"
         id="stop3541" />
      <stop
         style="stop-color: rgb(232, 205, 186); stop-opacity: 0;"
         offset="1"
         id="stop3543" />
    </linearGradient>
    <radialGradient
       inkscape:collect="always"
       xlink:href="#linearGradient6382"
       id="radialGradient3531"
       gradientUnits="userSpaceOnUse"
       cx="214.15234"
       cy="588.70215"
       fx="214.15234"
       fy="588.70215"
       r="64.649765" />
    <radialGradient
       inkscape:collect="always"
       xlink:href="#linearGradient6382"
       id="radialGradient3529"
       gradientUnits="userSpaceOnUse"
       cx="214.15234"
       cy="588.70215"
       fx="214.15234"
       fy="588.70215"
       r="64.649765" />
    <radialGradient
       inkscape:collect="always"
       xlink:href="#linearGradient6382"
       id="radialGradient3527"
       cx="378.62222"
       cy="747.50793"
       fx="378.62222"
       fy="747.50793"
       r="336.7695"
       gradientTransform="matrix(-0.862399,1.36421e-6,-5.67292e-7,-0.35709,705.146,1042.56)"
       gradientUnits="userSpaceOnUse" />
    <radialGradient
       inkscape:collect="always"
       xlink:href="#linearGradient8194"
       id="radialGradient3525"
       gradientUnits="userSpaceOnUse"
       gradientTransform="matrix(-1.43537,2.92002e-7,-6.14818e-8,-0.263691,922.085,843.663)"
       cx="378.62122"
       cy="2186.678"
       fx="378.62122"
       fy="2186.678"
       r="336.7695" />
    <radialGradient
       inkscape:collect="always"
       xlink:href="#linearGradient9972"
       id="radialGradient3523"
       cx="502.82346"
       cy="222.48161"
       fx="502.82346"
       fy="222.48161"
       r="224.85068"
       gradientTransform="matrix(1,0,0,0.474624,0,127.405)"
       gradientUnits="userSpaceOnUse" />
    <linearGradient
       inkscape:collect="always"
       xlink:href="#linearGradient11754"
       id="linearGradient3521"
       x1="546.13843"
       y1="320.64584"
       x2="631.10602"
       y2="283.50299"
       gradientUnits="userSpaceOnUse" />
    <linearGradient
       id="linearGradient3511">
      <stop
         style="stop-color: rgb(250, 232, 208); stop-opacity: 1;"
         offset="0"
         id="stop3513" />
      <stop
         style="stop-color: rgb(229, 200, 180); stop-opacity: 1;"
         offset="1"
         id="stop3515" />
    </linearGradient>
    <linearGradient
       id="linearGradient3499">
      <stop
         style="stop-color: rgb(155, 62, 27); stop-opacity: 1;"
         offset="0"
         id="stop3501" />
      <stop
         id="stop3503"
         offset="0.36107188"
         style="stop-color: rgb(155, 62, 27); stop-opacity: 0.731959;" />
      <stop
         style="stop-color: rgb(155, 62, 27); stop-opacity: 0.247059;"
         offset="0.59470665"
         id="stop3505" />
      <stop
         id="stop3507"
         offset="0.71050477"
         style="stop-color: rgb(155, 62, 27); stop-opacity: 0.121569;" />
      <stop
         style="stop-color: rgb(155, 62, 27); stop-opacity: 0;"
         offset="1"
         id="stop3509" />
    </linearGradient>
    <radialGradient
       inkscape:collect="always"
       xlink:href="#linearGradient2251"
       id="radialGradient2257"
       cx="-273.84509"
       cy="91.583633"
       fx="-273.84509"
       fy="91.583633"
       r="440.93701"
       gradientTransform="matrix(1,0,0,1.05263,0,-4.82019)"
       gradientUnits="userSpaceOnUse" />
    <radialGradient
       inkscape:collect="always"
       xlink:href="#linearGradient2251"
       id="radialGradient3140"
       gradientUnits="userSpaceOnUse"
       gradientTransform="matrix(1,0,0,1.05263,0,-4.82019)"
       cx="-273.84509"
       cy="91.583633"
       fx="-273.84509"
       fy="91.583633"
       r="440.93701" />
    <radialGradient
       inkscape:collect="always"
       xlink:href="#linearGradient4399"
       id="radialGradient4405"
       cx="-315.73877"
       cy="436.39151"
       fx="-315.73877"
       fy="436.39151"
       r="337.98645"
       gradientTransform="matrix(0.683557,0,0,0.723514,474.65,-41.0505)"
       gradientUnits="userSpaceOnUse" />
    <inkscape:perspective
       id="perspective51"
       inkscape:persp3d-origin="35.098743 : 18.352299 : 1"
       inkscape:vp_z="70.197487 : 27.528448 : 1"
       inkscape:vp_y="0 : 1000 : 0"
       inkscape:vp_x="0 : 27.528448 : 1"
       sodipodi:type="inkscape:persp3d" />
    <radialGradient
       inkscape:collect="always"
       xlink:href="#linearGradient3725"
       id="radialGradient3731"
       cx="45.717796"
       cy="179.56825"
       fx="45.717796"
       fy="179.56825"
       r="7.9554483"
       gradientTransform="matrix(0.4472797,-0.5827922,0.5639534,0.4328213,-75.998969,130.91725)"
       gradientUnits="userSpaceOnUse" />
    <radialGradient
       inkscape:collect="always"
       xlink:href="#linearGradient3725"
       id="radialGradient3733"
       gradientUnits="userSpaceOnUse"
       gradientTransform="matrix(0.5143861,-0.6163454,0.5457947,0.4555062,-76.466921,128.39793)"
       cx="62.753777"
       cy="201.40329"
       fx="62.753777"
       fy="201.40329"
       r="7.9554483" />
    <linearGradient
       inkscape:collect="always"
       xlink:href="#linearGradient3753"
       id="linearGradient3759"
       x1="29.959404"
       y1="141.91359"
       x2="82.288338"
       y2="141.91359"
       gradientUnits="userSpaceOnUse" />
    <inkscape:perspective
       id="perspective4016"
       inkscape:persp3d-origin="154.927 : 116.045 : 1"
       inkscape:vp_z="309.854 : 174.0675 : 1"
       inkscape:vp_y="0 : 1000 : 0"
       inkscape:vp_x="0 : 174.0675 : 1"
       sodipodi:type="inkscape:persp3d" />
  </defs>
  <sodipodi:namedview
     inkscape:window-height="744"
     inkscape:window-width="1280"
     inkscape:pageshadow="2"
     inkscape:pageopacity="0.0"
     guidetolerance="10.0"
     gridtolerance="10.0"
     objecttolerance="10.0"
     borderopacity="1.0"
     bordercolor="#666666"
     pagecolor="#ffffff"
     id="base"
     showgrid="false"
     inkscape:zoom="4.1412381"
     inkscape:cx="37.285686"
     inkscape:cy="82.37405"
     inkscape:window-x="-4"
     inkscape:window-y="-4"
     inkscape:current-layer="layer2" />
  <g
     inkscape:groupmode="layer"
     id="layer2"
     inkscape:label="hi"
     style="display:inline"
     transform="translate(-18.075,-5.126125)">
    <g
       id="g3735">
      <path
         style="fill:none;fill-opacity:1;fill-rule:evenodd;stroke:#000000;stroke-width:2;stroke-linecap:butt;stroke-linejoin:miter;stroke-miterlimit:4;stroke-dasharray:none;stroke-opacity:1"
         d="M 59.522907,172.70838 C 60.327477,179.56218 57.109849,189.89211 65.894749,187.63023 C 73.438701,185.81808 73.586493,181.97142 74.899769,180.24467 L 74.421433,170.21242 C 73.614284,157.52328 59.465777,161.50629 59.522907,172.70838 z"
         id="path3540"
         sodipodi:nodetypes="ccccc" />
      <path
         sodipodi:nodetypes="ccccc"
         id="path3538"
         d="M 53.673068,173.15277 C 52.840565,180.00657 56.169903,190.33651 47.080007,188.07462 C 39.274143,186.26247 39.12122,182.41581 37.76235,180.68906 L 38.257293,170.65681 C 39.092465,157.96767 53.732182,161.95068 53.673068,173.15277 z"
         style="fill:none;fill-opacity:1;fill-rule:evenodd;stroke:#000000;stroke-width:2;stroke-linecap:butt;stroke-linejoin:miter;stroke-miterlimit:4;stroke-dasharray:none;stroke-opacity:1" />
      <path
         sodipodi:nodetypes="ccccc"
         id="path3064"
         d="M 59.522907,172.70838 C 60.327477,179.56218 57.109849,189.89211 65.894749,187.63023 C 73.438701,185.81808 73.586493,181.97142 74.899769,180.24467 L 74.421433,170.21242 C 73.614284,157.52328 59.465777,161.50629 59.522907,172.70838 z"
         style="fill:url(#radialGradient3733);fill-opacity:1;fill-rule:evenodd;stroke:none;stroke-width:1.04766500000000010px;stroke-linecap:butt;stroke-linejoin:miter;stroke-opacity:1;opacity:1;color:#000000;marker:none;marker-start:none;marker-mid:none;marker-end:none;stroke-miterlimit:4;stroke-dasharray:none;stroke-dashoffset:0;visibility:visible;display:inline;overflow:visible;enable-background:accumulate" />
      <path
         style="fill:url(#radialGradient3731);fill-opacity:1;fill-rule:evenodd;stroke:none;stroke-width:1.04766500000000010px;stroke-linecap:butt;stroke-linejoin:miter;stroke-opacity:1"
         d="M 53.673068,173.15277 C 52.840565,180.00657 56.169903,190.33651 47.080007,188.07462 C 39.274143,186.26247 39.12122,182.41581 37.76235,180.68906 L 38.257293,170.65681 C 39.092465,157.96767 53.732182,161.95068 53.673068,173.15277 z"
         id="path2904"
         sodipodi:nodetypes="ccccc" />
    </g>
    <path
       sodipodi:type="arc"
       style="opacity:1;fill:none;fill-opacity:1;fill-rule:evenodd;stroke:none;stroke-width:2;stroke-linecap:round;stroke-linejoin:round;marker:none;marker-start:none;marker-mid:none;marker-end:none;stroke-miterlimit:4;stroke-dasharray:none;stroke-dashoffset:0;stroke-opacity:1;visibility:visible;display:inline;overflow:visible;enable-background:accumulate"
       id="path2896"
       sodipodi:cx="56.875"
       sodipodi:cy="40.6875"
       sodipodi:rx="21"
       sodipodi:ry="22.3125"
       d="M 77.875,40.6875 A 21,22.3125 0 1 1 35.875,40.6875 A 21,22.3125 0 1 1 77.875,40.6875 z"
       transform="matrix(0.9467315,-0.3220239,0.3220239,0.9467315,-10.947703,19.607468)" />
    <path
       style="fill:#e9b96e;fill-opacity:1;fill-rule:evenodd;stroke:none;stroke-width:1.20749307px;stroke-linecap:butt;stroke-linejoin:miter;stroke-opacity:1"
       d="M 54.319736,122.59371 L 52.26546,142.93234 C 51.786984,150.55078 48.089542,149.50639 44.064929,150.61649 C 39.692927,151.82243 37.736663,148.82041 36.104469,142.44554 L 36.040738,122.39527 C 36.592461,117.97862 40.02678,111.43726 46.212767,112.3395 C 52.927269,113.31881 54.405286,118.01176 54.319736,122.59371 z"
       id="path3056"
       sodipodi:nodetypes="ccsccsc" />
    <path
       sodipodi:nodetypes="ccsccsc"
       id="path3058"
       d="M 58.480315,122.1984 L 60.535467,140.30337 C 61.349488,147.88314 65.829302,150.15314 69.964182,149.62747 C 74.920548,148.99737 75.882851,147.16262 77.233037,140.71206 L 76.739454,121.02877 C 75.993372,116.6491 72.272787,110.30165 66.130333,111.5311 C 59.463084,112.8656 58.192838,117.62895 58.480315,122.1984 z"
       style="fill:#e9b96e;fill-opacity:1;fill-rule:evenodd;stroke:none;stroke-width:1.20749307px;stroke-linecap:butt;stroke-linejoin:miter;stroke-opacity:1" />
    <path
       sodipodi:nodetypes="ccsccsc"
       id="path3060"
       d="M 51.598615,149.11825 L 52.498722,166.41749 C 52.914952,173.65305 49.180297,175.1241 45.853389,176.56661 C 42.239315,178.13367 38.95026,174.36471 36.860978,168.50972 L 35.920245,150.72527 C 35.913924,146.50364 38.146305,139.99425 43.542734,140.23835 C 49.40022,140.50333 51.175072,144.78642 51.598615,149.11825 z"
       style="fill:#e9b96e;fill-opacity:1;fill-rule:evenodd;stroke:none;stroke-width:1.09267533px;stroke-linecap:butt;stroke-linejoin:miter;stroke-opacity:1" />
    <path
       style="fill:#e9b96e;fill-opacity:1;fill-rule:evenodd;stroke:none;stroke-width:1.09267533px;stroke-linecap:butt;stroke-linejoin:miter;stroke-opacity:1"
       d="M 62.151571,149.12375 L 61.54668,166.47436 C 61.253992,173.73295 65.007563,175.0621 68.353566,176.37836 C 71.988381,177.80824 75.208098,173.90939 77.194565,167.96852 L 77.831776,150.13066 C 77.766399,145.90468 75.427108,139.47463 70.043585,139.92606 C 64.200106,140.41608 62.500866,144.77145 62.151571,149.12375 z"
       id="path3062"
       sodipodi:nodetypes="ccsccsc" />
    <path
       sodipodi:nodetypes="cccccccc"
       id="path3542"
       d="M 36.142393,105.67592 C 33.114123,128.11671 34.623293,151.74582 35.912313,176.30631 C 41.177393,178.85438 51.706133,177.56641 55.613303,176.66317 C 56.267403,159.98684 55.314113,153.12317 56.836913,129.19585 C 58.332333,154.04533 58.052043,161.45932 57.365033,175.46453 C 60.068823,181.59166 78.001963,177.40558 77.033163,174.56593 C 77.494473,152.90575 76.989183,130.05913 74.848813,105.20552 C 61.170513,111.69959 39.614783,108.11266 36.142393,105.67592 z"
       style="fill:none;fill-opacity:1;fill-rule:evenodd;stroke:#000000;stroke-width:2.2;stroke-linecap:butt;stroke-linejoin:miter;stroke-miterlimit:4;stroke-dasharray:none;stroke-opacity:1" />
    <path
       style="fill:url(#linearGradient3759);fill-opacity:1;fill-rule:evenodd;stroke:none;stroke-width:1px;stroke-linecap:butt;stroke-linejoin:miter;stroke-opacity:1"
       d="M 36.142393,105.67592 C 33.114123,128.11671 34.623293,151.74582 35.912313,176.30631 C 41.177393,178.85438 51.706133,177.56641 55.613303,176.66317 C 56.267403,159.98684 55.314113,153.12317 56.836913,129.19585 C 58.332333,154.04533 58.052043,161.45932 57.365033,175.46453 C 60.068823,181.59166 78.001963,177.40558 77.033163,174.56593 C 77.494473,152.90575 76.989183,130.05913 74.848813,105.20552 C 61.170513,111.69959 39.614783,108.11266 36.142393,105.67592 z"
       id="path2900"
       sodipodi:nodetypes="cccccccc" />
    <path
       id="path3606"
       d="M 52.15625,45.75 C 48.980623,45.75 46.062501,48.936096 46.0625,52.21875 L 45.09375,61.9375 L 44.625,61.9375 C 43.202938,61.9375 41.858586,62.208588 40.59375,62.6875 C 40.300534,62.431141 40.048264,61.985194 39.625,61.9375 C 34.632791,61.37497 30.892868,64.330557 28.96875,68.25 L 21.5625,85.15625 C 18.616405,88.551553 18.306027,92.167756 18.875,95.25 L 19.40625,105.375 L 20.1875,115.25 C 19.906333,119.24446 20.395,125.95391 22.28125,127.0625 C 22.803886,127.36964 23.321619,126.99529 23.59375,126.3125 C 23.571223,126.1387 23.525537,125.87451 23.5,125.6875 C 23.303754,124.76414 23.174669,123.59659 23.0625,122.15625 C 23.205137,123.46239 23.35619,124.63433 23.5,125.6875 C 23.94832,127.7969 24.620263,128.67141 25.40625,128.625 C 25.829988,128.59997 26.653433,128.58217 26.65625,127.5625 C 25.934116,125.30152 25.465499,120.24496 25.34375,117.6875 C 25.992522,123.05347 26.328242,129.27037 28.125,128.9375 C 29.149672,128.74767 28.761985,128.41717 29.40625,127.71875 C 29.077676,126.81674 28.901677,125.57837 28.78125,124.25 C 28.724376,123.62266 28.686464,122.99912 28.65625,122.34375 C 28.571654,120.50878 28.533206,118.63258 28.46875,117.21875 C 28.580593,118.49447 28.570282,120.42114 28.65625,122.34375 C 28.684906,122.98462 28.721901,123.63782 28.78125,124.25 C 29.018647,126.69873 29.568888,128.70907 30.96875,128.6875 C 31.859307,128.67378 32.539743,127.13454 32.1875,125.625 C 31.56497,122.9572 31.502861,119.88675 31.5,117.375 C 33.185608,119.75642 34.729036,122.15314 37.03125,119.46875 L 31.46875,111.09375 L 32.25,98.96875 C 32.715179,97.444507 32.700254,95.732096 32.25,94.15625 C 32.898354,93.397968 35.776878,89.014546 36.389981,87.758779 L 35.756242,100.64123 C 35.756242,107.78914 42.385907,109.75376 49.070219,109.75376 L 63.391931,108.8424 C 70.076244,108.8424 75.1875,105.74166 75.1875,98.59375 L 75.24251,87.213756 L 77.75,91.15625 C 78.359104,92.565572 78.991831,93.622955 79.625,94.46875 C 79.209487,95.73651 79.054553,97.113732 79.21875,98.4375 L 78.15625,110.53125 L 71.9375,117.65625 C 73.618308,120.75793 75.359284,118.69403 77.21875,116.6875 C 76.852814,119.15859 76.351688,122.18667 75.40625,124.6875 C 74.871285,126.10256 75.264095,127.74602 76.0625,127.9375 C 78.57254,128.5395 79.208558,120.44427 79.96875,117.15625 C 79.414056,120.06937 78.814912,124.98426 77.625,127.28125 C 78.102997,128.09728 77.700279,128.35841 78.59375,128.75 C 80.160443,129.43664 81.35939,123.40071 82.71875,118.25 C 82.239349,120.74233 81.069857,125.63815 80.09375,127.71875 C 79.948765,128.7227 80.716532,128.8907 81.09375,129 C 81.800502,129.2048 82.503524,128.43869 83.21875,126.40625 C 83.494019,125.4234 83.817948,124.33883 84.125,123.125 C 83.825443,124.47208 83.519046,125.55291 83.21875,126.40625 C 83.161125,126.612 83.082975,126.90399 83.03125,127.09375 C 83.177063,127.82003 83.57959,128.26029 84.09375,128.0625 C 85.949416,127.34858 87.393585,120.86191 87.71875,116.875 L 89.8125,107.3125 L 91.78125,97.4375 C 92.668897,92.819738 92.071064,89.27491 89.5,85.65625 L 82.34375,69.1875 C 80.489202,65.387572 77.580625,63.060943 72.4375,63.375 C 72.221623,63.388182 72.123587,63.643957 71.96875,63.78125 C 70.321279,62.719753 68.419204,62.081664 66.375,61.96875 L 65.25,52.03125 C 65.25,48.748595 62.706876,45.749998 59.53125,45.75 L 52.15625,45.75 z M 22.84375,117.5625 C 22.864879,119.20437 22.943332,120.57487 23.03125,121.8125 C 22.884386,120.37921 22.768389,118.91659 22.84375,117.5625 z M 84.96875,118.59375 C 84.830303,120.04946 84.498466,121.61379 84.125,123.09375 C 84.407048,121.82186 84.688501,120.35432 84.96875,118.59375 z"
       style="fill:#e8cdba;fill-opacity:1;fill-rule:evenodd;stroke:#000000;stroke-width:1.60000002;stroke-linecap:round;stroke-linejoin:round;marker:none;marker-start:none;marker-mid:none;marker-end:none;stroke-miterlimit:4;stroke-dasharray:none;stroke-dashoffset:0;stroke-opacity:1;visibility:visible;display:inline;overflow:visible;enable-background:accumulate"
       sodipodi:nodetypes="cccccscccccsccccsccscsscsssscccccccccccccccccssccsccsccccscccccsccccccccccc" />
    <path
       style="fill:#e8cdba;fill-opacity:1;fill-rule:evenodd;stroke:none;stroke-width:0.95659405;stroke-linecap:round;stroke-linejoin:round;marker:none;marker-start:none;marker-mid:none;marker-end:none;stroke-miterlimit:4;stroke-dasharray:none;stroke-dashoffset:0;stroke-opacity:1;visibility:visible;display:inline;overflow:visible;enable-background:accumulate"
       d="M 52.15625,45.75 C 48.980623,45.75 46.062501,48.936096 46.0625,52.21875 L 45.09375,61.9375 L 44.625,61.9375 C 43.202938,61.9375 41.858586,62.208588 40.59375,62.6875 C 40.300534,62.431141 40.048264,61.985194 39.625,61.9375 C 34.632791,61.37497 30.892868,64.330557 28.96875,68.25 L 21.5625,85.15625 C 19.432809,88.485626 18.181701,91.164111 18.875,95.25 L 19.40625,105.375 L 20.1875,115.25 C 19.906333,119.24446 20.395,125.95391 22.28125,127.0625 C 23.363935,127.22288 23.712435,126.97243 23.547187,125.97062 C 23.462132,125.57043 22.799723,123.15867 22.655454,121.72024 C 22.466855,119.83981 22.465434,118.348 22.779377,117.90941 C 22.760658,119.92343 22.803318,120.50505 22.981114,122.2966 C 23.138529,123.88277 23.762777,125.42887 23.83031,125.92344 C 24.27863,128.03284 24.620263,128.67141 25.40625,128.625 C 25.829988,128.59997 26.417497,128.4878 26.420314,127.46813 C 25.69818,125.20715 25.040815,118.40466 25.34375,117.6875 C 25.651124,120.22978 25.69948,122.30244 26.054984,124.43969 C 26.44984,126.81351 27.179506,129.11266 28.125,128.9375 C 29.149672,128.74767 28.997921,128.60592 29.264689,127.62438 C 28.983302,126.53362 28.948864,126.52211 28.828437,125.19374 C 28.771563,124.5664 28.59209,122.90475 28.561876,122.24938 C 28.47728,120.41441 27.919774,117.59446 28.46875,117.21875 C 28.396169,118.63387 28.649686,120.42863 28.844998,122.43812 C 28.907057,123.07663 29.099398,124.53437 29.158747,125.14655 C 29.396144,127.59528 29.568888,128.70907 30.96875,128.6875 C 31.859307,128.67378 32.539743,127.13454 32.1875,125.625 C 31.56497,122.9572 31.502861,119.88675 31.5,117.375 C 33.185608,119.75642 34.729036,122.15314 37.03125,119.46875 L 31.46875,111.09375 L 32.25,98.96875 C 32.715179,97.444507 32.700254,95.732096 32.25,94.15625 C 32.898354,93.397968 35.210632,89.392043 35.823735,88.136276 C 36.178805,91.339786 36.671579,94.35969 35.567494,99.508739 C 35.567494,106.65665 41.506934,106.74443 48.191246,106.74443 L 61.898135,107.31066 C 68.582448,107.31066 74.621255,107.0629 74.621255,99.914989 L 75.431258,87.96875 C 77.183524,89.922479 78.178893,92.321835 79.625,94.46875 C 79.209487,95.73651 79.054553,97.113732 79.21875,98.4375 L 78.15625,110.53125 L 71.9375,117.65625 C 73.618308,120.75793 75.359284,118.69403 77.21875,116.6875 C 76.852814,119.15859 76.351688,122.18667 75.40625,124.6875 C 74.871285,126.10256 75.264095,127.74602 76.0625,127.9375 C 78.57254,128.5395 80.409745,117.6415 79.96875,117.15625 C 79.280591,121.60422 78.481249,124.6506 77.291337,126.94759 C 77.769334,127.76362 77.700279,128.35841 78.59375,128.75 C 80.160443,129.43664 82.026716,121.99932 82.71875,118.25 C 83.173606,119.27421 81.336788,125.43795 80.360681,127.51855 C 80.215696,128.5225 80.716532,128.8907 81.09375,129 C 81.800502,129.2048 82.503524,128.43869 83.21875,126.40625 C 83.494019,125.4234 84.818938,122.20339 85.326187,118.92084 C 85.762399,119.53216 84.572937,123.6315 83.285483,126.67318 C 82.827462,127.21259 83.416638,127.43785 83.364913,127.62761 C 83.510726,128.35389 83.57959,128.26029 84.09375,128.0625 C 85.949416,127.34858 87.393585,120.86191 87.71875,116.875 L 89.8125,107.3125 L 91.78125,97.4375 C 92.324301,93.385983 92.771055,89.841155 89.5,85.65625 L 82.34375,69.1875 C 80.489202,65.387572 76.825632,63.060943 72.4375,63.375 C 72.221773,63.390439 72.123587,63.643957 71.96875,63.78125 C 70.321279,62.719753 68.419204,62.081664 66.375,61.96875 L 65.25,52.03125 C 65.25,48.748595 62.706876,45.749998 59.53125,45.75 L 52.15625,45.75 z"
       id="path3054"
       sodipodi:nodetypes="cccccscccccccscscsccsscsscssssccccccccccccccccssccsccsccccscccccsccccc" />
  </g>
  <g
     inkscape:groupmode="layer"
     id="layer4"
     inkscape:label="clothes"
     style="display:inline"
     transform="translate(-18.075,-5.126125)">
    <g
       id="g3571"
       inkscape:label="hi"
       style="display:inline"
       transform="translate(-9.176164,9.528843)" />
    <path
       sodipodi:nodetypes="ccccc"
       id="path3575"
       d="M 58.61551,68.315144 C 62.4563,67.195024 64.89318,70.137729 66.90447,74.312065 C 68.44347,67.994248 69.73867,62.805262 73.12118,56.721099 C 70.12795,55.263438 68.86158,54.98042 65.86834,56.721099 L 58.61551,68.315144 z"
       style="fill:#73d216;fill-opacity:1;fill-rule:evenodd;stroke:#000000;stroke-width:0.99965638000000001;stroke-linecap:butt;stroke-linejoin:round;stroke-miterlimit:4;stroke-dasharray:none;stroke-opacity:1" />
    <path
       style="fill:#73d216;fill-opacity:1;fill-rule:evenodd;stroke:#000000;stroke-width:0.99934107000000005px;stroke-linecap:butt;stroke-linejoin:round;stroke-opacity:1"
       d="M 54.11016,68.611989 C 50.16327,68.227932 47.82568,70.389875 46.42601,74.886601 C 44.02203,68.941461 44.09366,62.681025 38.31139,58.425891 C 41.0607,57.116433 41.61304,56.968292 44.81057,56.734377 C 48.29684,58.799489 51.53461,64.438404 54.11016,68.611989 z"
       id="path3577"
       sodipodi:nodetypes="ccccc" />
    <path
       sodipodi:nodetypes="cc"
       id="path2436"
       d="M 56.74822,74.309071 C 55.24435,83.592251 55.32244,98.572068 55.14536,109.00741"
       style="fill:none;fill-rule:evenodd;stroke:#000000;stroke-width:1.00262988px;stroke-linecap:round;stroke-linejoin:miter;stroke-opacity:1" />
    <path
       transform="matrix(0.9288369,0,0,1.0751968,4.391929,-12.160081)"
       style="fill:#000000;fill-opacity:1;fill-rule:evenodd;stroke:#000000;stroke-width:1.92924905;stroke-linecap:butt;stroke-linejoin:round;stroke-miterlimit:4;stroke-dasharray:none;stroke-opacity:1;filter:url(#filter3027)"
       d="M 44.099147,65.103411 C 38.374366,67.077098 33.071723,64.534545 26.599147,72.978411 C 21.912054,79.093006 20.264226,84.670713 18.286647,90.040911 C 21.578163,93.749395 29.200399,95.544079 34.823818,96.92066 L 36.573602,86.162608 L 36.997223,88.653561 L 35.861086,97.76004 L 33.829939,97.780579 L 32.286647,110.60341 C 46.452454,113.42021 61.141952,113.61855 76.474147,110.60341 L 76.079727,97.47453 L 74.221428,97.154463 L 72.522734,88.47959 L 72.753198,86.67619 L 74.986811,96.603411 C 82.305354,95.892162 87.905303,93.043626 91.786647,90.040911 C 89.475161,83.452052 85.343313,75.312429 83.222564,72.354994 C 79.77067,67.541245 71.80748,64.001107 65.536647,65.978411 L 58.974147,75.603411 L 56.349147,81.728411 L 52.849147,73.853411 L 44.099147,65.103411 z"
       id="path3579"
       sodipodi:nodetypes="csccccccccccccccsccccc" />
    <path
       transform="translate(20.413253,55.019554)"
       d="M 40.573442,26.094931 A 1.4681181,1.4681181 0 1 1 37.637206,26.094931 A 1.4681181,1.4681181 0 1 1 40.573442,26.094931 z"
       sodipodi:ry="1.4681181"
       sodipodi:rx="1.4681181"
       sodipodi:cy="26.094931"
       sodipodi:cx="39.105324"
       id="path3208"
       style="opacity:0.98999999000000005;fill:#4e9a06;fill-opacity:1;fill-rule:evenodd;stroke:#000000;stroke-width:0.60000001999999997;stroke-linecap:round;stroke-linejoin:round;marker:none;marker-start:none;marker-mid:none;marker-end:none;stroke-miterlimit:4;stroke-dasharray:none;stroke-dashoffset:0;stroke-opacity:1;visibility:visible;display:inline;overflow:visible;enable-background:accumulate"
       sodipodi:type="arc" />
    <path
       sodipodi:type="arc"
       style="opacity:0.98999999000000005;fill:#4e9a06;fill-opacity:1;fill-rule:evenodd;stroke:#000000;stroke-width:0.60000001999999997;stroke-linecap:round;stroke-linejoin:round;marker:none;marker-start:none;marker-mid:none;marker-end:none;stroke-miterlimit:4;stroke-dasharray:none;stroke-dashoffset:0;stroke-opacity:1;visibility:visible;display:inline;overflow:visible;enable-background:accumulate"
       id="path3210"
       sodipodi:cx="39.105324"
       sodipodi:cy="26.094931"
       sodipodi:rx="1.4681181"
       sodipodi:ry="1.4681181"
       d="M 40.573442,26.094931 A 1.4681181,1.4681181 0 1 1 37.637206,26.094931 A 1.4681181,1.4681181 0 1 1 40.573442,26.094931 z"
       transform="translate(20.413253,64.629054)" />
    <path
       transform="translate(20.146322,73.437762)"
       d="M 40.573442,26.094931 A 1.4681181,1.4681181 0 1 1 37.637206,26.094931 A 1.4681181,1.4681181 0 1 1 40.573442,26.094931 z"
       sodipodi:ry="1.4681181"
       sodipodi:rx="1.4681181"
       sodipodi:cy="26.094931"
       sodipodi:cx="39.105324"
       id="path3212"
       style="opacity:0.98999999000000005;fill:#4e9a06;fill-opacity:1;fill-rule:evenodd;stroke:#000000;stroke-width:0.60000001999999997;stroke-linecap:round;stroke-linejoin:round;marker:none;marker-start:none;marker-mid:none;marker-end:none;stroke-miterlimit:4;stroke-dasharray:none;stroke-dashoffset:0;stroke-opacity:1;visibility:visible;display:inline;overflow:visible;enable-background:accumulate"
       sodipodi:type="arc" />
    <path
       id="path3218"
       d="M 47.4806,108.68787 C 43.21806,108.30496 34.53403,106.83763 34.53488,106.50047 C 34.53511,106.41095 34.83521,103.51491 35.20179,100.06483 C 35.56837,96.614756 35.86848,93.641817 35.86871,93.458302 C 35.86895,93.256254 36.23055,93.124639 36.78539,93.124639 C 37.43039,93.124639 37.74026,92.986345 37.83206,92.65751 C 38.18672,91.387014 38.85402,82.901586 38.6869,81.787167 C 38.58321,81.095707 38.42733,80.601021 38.34049,80.687856 C 38.25366,80.774691 37.84533,83.265076 37.4331,86.222042 C 37.02088,89.17901 36.62059,91.661347 36.54359,91.738354 C 36.27437,92.007569 28.65486,89.356874 26.27874,88.167383 C 24.86839,87.461357 23.38979,86.475634 22.687191,85.773035 L 21.492928,84.578772 L 22.171789,82.512105 C 24.91747,74.153388 26.43669,70.68485 29.16805,66.538826 C 31.69027,62.710265 35.00044,60.038989 37.78174,59.587647 C 38.64776,59.447116 38.80467,59.537931 39.94167,60.837694 C 41.63974,62.778839 42.62951,64.861629 43.99623,69.369755 C 44.64129,71.497458 45.34089,73.718788 45.5509,74.306035 C 46.08762,75.806849 46.73768,75.72586 47.38516,74.077505 C 48.59724,70.991782 50.37972,69.430201 52.83859,69.299913 L 54.07581,69.234354 L 55.08729,71.816635 L 56.09877,74.398916 L 55.74339,77.288711 C 55.25806,81.235389 54.88124,89.11559 54.66384,99.86463 L 54.48163,108.87354 L 51.51497,108.82867 C 49.88331,108.80399 48.06784,108.74063 47.4806,108.68788 L 47.4806,108.68787 z"
       style="opacity:0.98999999000000005;fill:#73d216;fill-opacity:1;fill-rule:evenodd;stroke:#000000;stroke-width:0.16015834000000001;stroke-linecap:round;stroke-linejoin:round;marker:none;marker-start:none;marker-mid:none;marker-end:none;stroke-miterlimit:4;stroke-dasharray:none;stroke-dashoffset:0;stroke-opacity:1;visibility:visible;display:inline;overflow:visible;enable-background:accumulate" />
    <path
       id="path2428"
       d="M 55.86094,100.60534 C 56.04725,88.314635 56.48032,80.065792 57.17555,75.565162 C 57.37015,74.305465 59.05069,69.3907 59.45374,68.902581 C 59.77335,68.515558 60.97207,68.633684 62.01893,69.155355 C 63.27299,69.780284 64.58259,71.251196 65.62238,73.202693 C 66.47554,74.803872 66.82388,75.12209 67.24528,74.685217 C 67.38414,74.541255 67.88202,72.92805 68.35168,71.100315 C 69.45541,66.805118 70.50755,63.610984 71.67133,61.022335 C 72.72517,58.678214 72.59256,58.744816 74.47642,59.613789 C 77.38526,60.95556 80.36456,63.61021 81.88257,66.212916 C 83.69861,69.326629 86.46893,75.750647 88.47566,81.501537 L 89.5624,84.615886 L 88.59695,85.395798 C 84.52584,88.684505 78.90627,91.182696 75.18328,91.358881 L 74.08558,91.410828 L 73.0935,86.351188 C 72.54784,83.568379 72.05593,81.246066 72.00036,81.190491 C 71.94477,81.134916 71.84213,81.470743 71.77224,81.936778 C 71.68134,82.54297 71.87303,84.154441 72.44581,87.599162 L 73.24644,92.414211 L 74.05583,92.53559 C 74.74435,92.638835 74.8796,92.733032 74.96167,93.166385 C 75.01473,93.446571 75.11426,96.609265 75.18287,100.1946 L 75.30759,106.71339 L 72.12652,107.31394 C 67.20981,108.24216 63.27524,108.69108 57.80924,108.94748 L 55.733,109.04488 L 55.86094,100.60534 z M 60.41925,100.93444 C 61.33608,100.21327 61.19702,98.473048 60.17905,97.928243 C 59.19001,97.398917 57.87424,97.905939 57.52998,98.94904 C 56.96613,100.65753 58.99707,102.05313 60.41925,100.93444 z M 60.12797,92.434821 C 61.79908,91.852271 61.63056,89.27203 59.90023,88.947413 C 59.17913,88.812137 58.21608,89.222595 57.9092,89.796012 C 57.40386,90.740302 57.86863,92.044585 58.84735,92.428613 C 59.46413,92.670624 59.45172,92.670562 60.12797,92.434823 L 60.12797,92.434821 z M 60.25385,82.744381 C 61.01403,82.42675 61.30108,81.957799 61.30108,81.033496 C 61.30108,79.805159 59.98979,78.95209 58.83618,79.429937 C 58.08475,79.741185 57.71392,80.301845 57.71905,81.118852 C 57.72387,81.880217 58.16157,82.533359 58.84735,82.802444 C 59.48359,83.05209 59.52109,83.050539 60.25383,82.744381 L 60.25385,82.744381 z"
       style="fill:#73d216;fill-opacity:1;fill-rule:evenodd;stroke:#000000;stroke-width:0.30199745000000000;stroke-linecap:round;stroke-linejoin:round;marker:none;marker-start:none;marker-mid:none;marker-end:none;stroke-miterlimit:4;stroke-dasharray:none;stroke-dashoffset:0;stroke-opacity:1;visibility:visible;display:inline;overflow:visible;enable-background:accumulate" />
    <g
       style="stroke:#000000;stroke-opacity:1"
       transform="matrix(0.9959073,9.0380944e-2,-9.0380944e-2,0.9959073,-2.538375,3.9531653)"
       id="g3204">
      <path
         style="fill:none;fill-rule:evenodd;stroke:#000000;stroke-width:1px;stroke-linecap:butt;stroke-linejoin:miter;stroke-opacity:1"
         d="M 21.517318,23.535912 L 31.709732,23.724661 L 31.898481,32.029591 L 26.424777,35.238314 C 26.424777,35.238314 21.32857,32.784584 21.32857,31.840842 C 21.32857,30.8971 21.517318,23.158416 21.517318,23.535912 z"
         id="path2430"
         transform="translate(29.814595,46.086479)" />
      <path
         style="fill:none;fill-rule:evenodd;stroke:#000000;stroke-width:1px;stroke-linecap:round;stroke-linejoin:miter;stroke-opacity:1"
         d="M 21.32857,26.933384 L 31.898481,26.933384"
         id="path2432"
         transform="translate(29.814595,46.086479)" />
    </g>
    <path
       style="fill:#8f5902;fill-rule:evenodd;stroke:#000000;stroke-width:1px;stroke-linecap:butt;stroke-linejoin:round;stroke-opacity:1"
       d="M 17.364853,102.33793 C 30.943876,105.7938 44.109872,104.29335 57.190767,101.77169 L 58.134509,107.24539 C 45.450097,109.78344 32.171972,110.89658 16.987357,107.43414 L 17.364853,102.33793 z"
       id="path3708"
       transform="translate(18.075,5.126125)"
       sodipodi:nodetypes="ccccc" />
    <path
       style="fill:#3f71b2;fill-rule:evenodd;stroke:#000000;stroke-width:1px;stroke-linecap:butt;stroke-linejoin:round;stroke-opacity:1;fill-opacity:1"
       d="M 25.224937,103.58643 C 24.468306,105.94431 24.001583,108.56913 24.557611,110.66009 L 27.493847,110.92702 C 27.0644,108.2114 27.441859,106.8121 27.760778,103.7199 L 25.224937,103.58643 z"
       id="path3710"
       transform="translate(18.075,5.126125)"
       sodipodi:nodetypes="ccccc" />
    <path
       sodipodi:nodetypes="ccccc"
       id="path3712"
       d="M 67.922951,108.5281 C 68.476087,110.94183 68.717641,113.59686 67.98561,115.63289 L 65.037309,115.64886 C 65.696402,112.97966 65.439448,111.55331 65.384954,108.44518 L 67.922951,108.5281 z"
       style="fill:#3f71b2;fill-opacity:1;fill-rule:evenodd;stroke:#000000;stroke-width:1px;stroke-linecap:butt;stroke-linejoin:round;stroke-opacity:1" />
    <path
       style="opacity:1;fill:#babdb6;fill-opacity:1;fill-rule:evenodd;stroke:#000000;stroke-width:0.52541143;stroke-linecap:round;stroke-linejoin:round;marker:none;marker-start:none;marker-mid:none;marker-end:none;stroke-miterlimit:4;stroke-dasharray:none;stroke-dashoffset:0;stroke-opacity:1;visibility:visible;display:inline;overflow:visible;enable-background:accumulate"
       d="M 51.792265,108.1435 L 51.792265,116.0794 L 59.755525,116.0794 L 59.755525,108.1435 L 51.792265,108.1435 z M 53.34871,109.7206 L 58.19907,109.7206 L 58.332535,111.04421 L 55.787575,110.93475 L 54.966625,111.89253 L 55.897035,112.68612 L 58.332535,112.60402 L 58.332535,114.43749 L 53.215245,114.43749 L 53.34871,109.7206 z"
       id="rect3714"
       sodipodi:nodetypes="ccccccccccccccc" />
    <g
       id="g5"
       transform="matrix(0.1650854,0,0,0.1499138,30.167805,2.7701567)">
	<path
   id="path7"
   style="fill-rule:evenodd;stroke:#000000;stroke-width:0.036;stroke-miterlimit:10"
   d="M 24.635,211.913 C 24.671,219.258 25.715,227.43 28.055,236.573 C 30.359,245.79 33.671,256.626 38.279,266.597 C 42.815,276.496 48.251,286.181 54.983,295.253 C 61.571,304.181 69.059,312.461 77.843,319.805 C 86.591,326.969 95.771,333.485 107.183,338.237 C 118.487,342.845 133.031,346.626 145.415,347.777 C 157.764,348.785 169.103,347.489 180.551,344.717 C 191.856,341.765 202.979,337.013 212.951,330.749 C 222.779,324.269 231.959,314.98 239.23,307.204 C 246.466,299.501 250.931,292.444 255.935,284.669 C 260.83,276.568 265.042,268.612 268.57,260.116 C 272.027,251.62 274.654,242.261 276.742,234.52 C 278.83,226.708 280.055,220.12 280.847,214.072 L 280.847,214.072 C 282.826,215.08 285.275,215.512 288.335,215.512 C 291.466,215.404 295.642,215.619 298.919,213.783 C 302.015,211.876 304.821,208.924 306.767,204.243 C 308.531,199.311 309.97,192.22 309.826,185.487 C 309.574,178.683 307.558,169.684 305.722,164.32 C 303.814,158.884 301.439,155.968 298.595,153.772 C 295.534,151.54 291.611,151.432 288.335,151.36 C 285.022,151.216 281.997,151.792 279.118,153.088 L 279.118,153.088 C 280.919,146.428 280.919,138.148 279.118,127.816 C 277.245,117.304 273.755,103.984 268.21,91.312 C 262.522,78.64 251.183,61.216 245.71,52.252 C 240.202,43.144 239.913,42.064 235.271,37.492 C 230.482,32.884 225.082,28.348 217.414,25 C 209.531,21.58 200.062,18.916 189.012,17.548 C 177.78,16.144 165.143,15.244 151.535,16.792 C 137.819,18.16 121.655,20.824 108.191,26.332 C 94.619,31.84 82.559,40.336 71.723,49.876 C 60.815,59.38 51.599,71.332 44.075,82.96 C 36.659,94.516 31.187,109.744 27.371,118.78 C 23.411,127.636 21.971,131.164 20.531,136.168 C 19.019,141.064 18.335,145.24 18.479,148.12 C 18.623,150.928 19.487,152.476 21.215,152.908 L 21.215,152.908 C 16.571,152.548 12.863,153.592 9.947,155.644 C 7.031,157.732 5.411,161.116 3.827,165.508 C 2.063,169.864 0.299,174.867 0.083,181.204 C -0.169,187.432 0.227,197.332 2.783,202.695 C 5.231,207.807 11.315,210.723 15.059,212.271 C 18.659,213.75 21.899,213.678 24.635,211.913 L 24.635,211.913 z" />

	<path
   id="path9"
   style="fill:#e8cdba;fill-rule:evenodd;stroke:#000000;stroke-width:0.036;stroke-miterlimit:10"
   d="M 32.807,153.234 C 37.235,150.894 41.807,147.87 46.811,144.018 C 51.743,140.094 57.899,135.018 62.507,130.05 C 67.043,124.902 70.931,118.53 73.739,113.994 C 76.403,109.458 77.951,105.822 78.527,103.086 L 78.527,103.086 C 89.471,105.822 99.551,107.514 109.595,108.558 C 119.531,109.494 129.143,108.954 137.891,108.882 C 146.423,108.666 153.191,108.99 161.111,107.514 C 169.031,105.858 177.924,102.762 185.302,100.026 C 192.503,97.254 198.874,95.058 204.419,91.494 C 209.817,87.786 214.21,83.646 217.737,78.534 L 217.737,78.534 C 220.51,84.402 223.462,90.522 226.594,97.29 C 229.762,103.986 232.965,111.15 236.492,118.782 C 239.949,126.414 243.908,135.63 247.4,142.398 C 250.82,148.914 254.277,154.566 256.941,158.094 C 259.461,161.442 260.576,161.982 262.773,163.206 C 264.861,164.466 267.128,165.222 269.576,165.618 L 269.576,165.618 C 269.109,166.842 268.93,168.21 268.892,169.722 C 268.785,171.234 269.001,173.79 269.253,174.473 C 269.396,174.977 269.864,174.149 270.261,173.105 C 270.656,171.917 270.837,169.793 271.628,167.993 C 272.349,166.085 273.319,164.393 274.689,162.521 C 275.984,160.649 277.388,158.381 279.476,157.085 C 281.456,155.609 283.652,154.601 286.64,154.349 C 289.484,154.025 293.911,153.557 296.865,155.717 C 299.816,157.877 302.338,162.665 304.029,167.309 C 305.433,171.809 306.117,177.173 306.08,183.005 C 306.01,188.908 305.648,197.225 304.029,202.12 C 302.3,206.728 299.816,209.356 296.181,210.976 C 292.437,212.596 285.812,212.776 282.536,211.66 C 279.296,210.436 277.964,204.856 276.739,203.812 C 275.516,202.732 274.903,203.56 275.048,205.18 C 275.155,206.584 277.243,208.492 277.425,212.703 C 277.532,216.844 277.316,221.956 275.372,230.416 C 273.212,238.983 269.433,252.808 264.86,263.283 C 260.071,273.615 254.456,282.975 248.012,291.903 C 241.676,300.796 235.196,308.607 226.772,316.168 C 218.204,323.655 206.971,331.468 197.108,336.399 C 187.1,341.223 178.749,343.563 167.479,344.823 C 156.067,345.975 141.488,345.327 129.716,343.023 C 117.908,340.503 107.828,336.255 97.388,329.991 C 86.876,323.727 76.04,314.943 67.4,305.727 C 58.616,296.367 51.452,284.523 45.764,274.767 C 40.112,264.975 36.692,256.155 33.704,247.767 C 30.572,239.307 28.772,231.171 27.62,224.871 C 26.432,218.534 26.324,213.818 27.008,210.291 L 27.008,210.291 C 29.204,208.022 30.536,205.898 31.436,204.062 C 32.192,202.083 32.264,198.95 31.796,198.95 C 31.22,198.915 29.888,202.19 28.376,204.062 C 26.792,205.862 25.136,208.994 22.58,209.858 C 19.916,210.65 15.74,210.506 12.68,208.85 C 9.584,207.122 5.768,204.098 4.148,199.634 C 2.312,195.098 2.024,188.006 2.456,182.246 C 2.924,176.378 4.724,169.394 6.884,165.182 C 8.864,160.97 11.636,158.81 14.372,157.334 C 17.036,155.786 20.24,156.074 22.58,155.966 C 24.632,155.606 25.712,155.606 27.368,155.966 C 29.06,156.254 31.472,156.866 32.804,158.342 C 34.064,159.818 34.676,164.246 35.216,164.822 C 35.72,165.218 36.116,162.95 35.864,161.078 C 35.435,159.138 34.463,156.474 32.807,153.234 L 32.807,153.234 z" />

	<path
   id="path11"
   style="fill-rule:evenodd;stroke:#000000;stroke-width:0.036;stroke-miterlimit:10"
   d="M 14.735,179.514 C 15.131,177.426 15.923,174.294 17.111,172.35 C 18.263,170.262 20.279,168.534 21.899,167.562 C 23.483,166.446 25.175,165.51 26.687,166.554 C 28.127,167.562 30.503,172.602 30.755,174.042 C 30.899,175.23 28.487,175.554 27.695,174.726 C 26.831,173.862 26.471,170.442 25.643,169.615 C 24.635,168.751 23.627,168.643 22.223,169.975 C 20.783,171.199 17.975,174.799 17.111,177.463 C 16.175,180.127 16.391,183.511 16.787,185.671 C 17.111,187.723 17.903,189.127 19.163,189.738 C 20.315,190.098 23.303,188.335 23.951,188.73 C 24.383,189.09 24.059,192.006 22.583,192.474 C 21.035,192.942 16.751,192.654 15.419,191.466 C 14.159,190.098 14.339,186.57 14.411,184.626 C 14.267,182.646 14.231,181.458 14.735,179.514 L 14.735,179.514 z" />

	<path
   id="path13"
   style="fill-rule:evenodd;stroke:#000000;stroke-width:0.036;stroke-miterlimit:10"
   d="M 294.383,185.741 C 294.238,183.51 293.807,180.521 293.088,178.325 C 292.115,176.13 290.494,174.042 289.055,172.89 C 287.578,171.594 286.104,170.334 284.483,171.198 C 282.684,172.026 279.803,176.561 279.337,178.002 C 278.903,179.334 281.28,179.657 282.288,179.117 C 283.188,178.47 284.017,174.941 285.059,174.365 C 286.104,173.646 287.075,173.646 288.372,175.193 C 289.56,176.67 291.757,180.557 292.331,183.365 C 292.727,186.065 292.116,189.485 291.468,191.537 C 290.784,193.554 289.704,194.741 288.517,195.245 C 287.185,195.497 284.593,193.157 283.945,193.517 C 283.224,193.841 283.441,196.721 284.736,197.441 C 286.105,198.089 290.281,198.521 291.972,197.477 C 293.556,196.289 293.449,192.833 293.988,190.853 C 294.42,188.909 294.455,187.758 294.383,185.741 L 294.383,185.741 z" />

	<path
   id="path15"
   style="fill-rule:evenodd;stroke:#000000;stroke-width:0.036;stroke-miterlimit:10"
   d="M 286.283,179.153 C 286.138,179.838 287.795,182.681 288.336,184.626 C 288.695,186.497 288.731,189.918 289.02,190.422 C 289.344,190.781 290.352,189.018 290.387,187.361 C 290.352,185.597 289.668,181.925 289.02,180.521 C 288.264,179.01 286.428,178.506 286.283,179.153 L 286.283,179.153 z" />

	<path
   id="path17"
   style="fill-rule:evenodd;stroke:#000000;stroke-width:0.036;stroke-miterlimit:10"
   d="M 127.991,163.134 C 127.991,167.67 131.663,171.342 136.199,171.342 C 140.699,171.342 144.371,167.67 144.371,163.134 C 144.371,158.634 140.699,154.962 136.199,154.962 C 131.663,154.962 127.991,158.634 127.991,163.134 L 127.991,163.134 z" />

	<path
   id="path19"
   style="fill-rule:evenodd;stroke:#000000;stroke-width:0.036;stroke-miterlimit:10"
   d="M 161.074,163.494 C 161.074,167.994 164.746,171.666 169.283,171.666 C 173.818,171.666 177.455,167.994 177.455,163.494 C 177.455,158.958 173.818,155.286 169.283,155.286 C 164.746,155.286 161.074,158.958 161.074,163.494 L 161.074,163.494 z" />

	<path
   id="path21"
   style="fill-rule:evenodd;stroke:#000000;stroke-width:0.036;stroke-miterlimit:10"
   d="M 118.451,141.642 C 120.755,140.778 126.839,139.41 131.411,138.906 C 135.875,138.294 143.471,137.934 145.055,138.222 C 146.423,138.51 144.443,139.194 139.943,140.274 C 135.227,141.354 121.403,143.622 117.767,144.018 C 114.131,144.126 116.111,142.506 118.451,141.642 L 118.451,141.642 z" />

	<path
   id="path23"
   style="fill-rule:evenodd;stroke:#000000;stroke-width:0.036;stroke-miterlimit:10"
   d="M 171.264,140.346 C 173.819,140.382 179.795,141.282 184.33,142.506 C 188.687,143.478 195.924,146.07 197.291,146.826 C 198.406,147.582 196.391,147.546 191.783,146.862 C 187.066,146.034 173.242,143.37 169.752,142.326 C 166.295,141.21 168.742,140.274 171.264,140.346 L 171.264,140.346 z" />

	<path
   id="path25"
   style="fill-rule:evenodd;stroke:#000000;stroke-width:0.036;stroke-miterlimit:10"
   d="M 82.631,110.826 C 84.755,111.762 91.019,112.914 95.591,113.886 C 100.199,114.75 107.939,115.938 109.919,115.938 C 111.683,115.65 109.739,113.994 106.859,113.202 C 103.907,112.41 96.635,112.266 92.531,111.51 C 88.319,110.574 83.927,108.63 82.271,108.45 C 80.543,108.342 80.435,109.782 82.631,110.826 L 82.631,110.826 z" />

	<path
   id="path27"
   style="fill-rule:evenodd;stroke:#000000;stroke-width:0.036;stroke-miterlimit:10"
   d="M 219.432,98.874 C 220.26,101.97 222.455,107.514 224.219,110.79 C 225.84,114.03 229.403,118.854 229.655,118.314 C 229.837,117.63 227.315,111.042 225.589,106.722 C 223.716,102.186 220.116,93.402 219.109,92.034 C 218.063,90.774 218.494,95.598 219.432,98.874 L 219.432,98.874 z" />

	<path
   id="path29"
   style="fill-rule:evenodd;stroke:#000000;stroke-width:0.036;stroke-miterlimit:10"
   d="M 112.655,114.93 C 112.655,115.506 113.951,115.938 115.535,115.938 C 117.155,115.938 118.451,115.506 118.451,114.93 C 118.451,114.354 117.155,113.886 115.535,113.886 C 113.951,113.886 112.655,114.354 112.655,114.93 L 112.655,114.93 z" />

	<path
   id="path31"
   style="fill-rule:evenodd;stroke:#000000;stroke-width:0.036;stroke-miterlimit:10"
   d="M 231.168,120.906 C 230.662,121.158 230.879,122.526 231.672,123.93 C 232.428,125.334 233.471,126.234 233.975,125.946 C 234.479,125.694 234.227,124.326 233.471,122.922 C 232.68,121.518 231.635,120.618 231.168,120.906 L 231.168,120.906 z" />

	<path
   id="path33"
   style="fill-rule:evenodd;stroke:#000000;stroke-width:0.036;stroke-miterlimit:10"
   d="M 97.643,244.926 L 100.703,243.558 L 100.703,243.558 C 101.747,249.894 103.619,255.762 106.175,261.306 C 108.659,266.886 111.683,272.142 116.075,276.642 C 120.467,280.962 125.723,284.49 132.419,287.226 C 139.115,289.89 147.503,293.238 155.639,292.698 C 163.596,292.051 173.242,287.982 179.867,283.806 C 186.455,279.486 190.99,273.546 194.879,267.785 C 198.588,262.061 200.567,254.79 202.367,249.714 C 204.131,244.566 205.103,240.354 205.428,237.077 L 205.428,237.077 L 209.532,237.437 L 209.532,237.437 C 207.552,244.601 205.212,251.369 202.368,257.885 C 199.524,264.437 196.499,270.952 192.468,276.317 C 188.364,281.429 184.079,285.785 177.816,288.953 C 171.228,292.05 162.408,294.785 154.273,295.073 C 146.065,295.181 137.281,293.525 129.721,289.962 C 122.053,286.218 114.205,279.306 109.237,273.258 C 104.269,267.138 101.893,258.533 100.021,253.818 C 98.075,249.065 97.283,246.149 97.643,244.926 L 97.643,244.926 z" />

	<path
   id="path35"
   style="fill-rule:evenodd;stroke:#000000;stroke-width:0.036;stroke-miterlimit:10"
   d="M 94.583,244.602 C 96.671,243.414 98.435,242.982 100.703,242.19 C 102.971,241.326 107.651,238.95 108.227,239.49 C 108.623,239.886 105.923,243.091 103.439,244.927 C 100.847,246.655 95.375,249.282 92.855,250.038 C 90.227,250.65 87.419,249.894 87.743,249.03 C 88.103,248.021 92.279,245.718 94.583,244.602 L 94.583,244.602 z" />

	<path
   id="path37"
   style="fill-rule:evenodd;stroke:#000000;stroke-width:0.036;stroke-miterlimit:10"
   d="M 211.512,236.394 C 209.063,235.746 207.407,235.53 204.994,235.314 C 202.547,234.846 197.363,233.622 197.074,234.162 C 196.679,234.738 199.955,237.223 202.871,238.555 C 205.752,239.706 211.547,241.255 214.283,241.399 C 217.054,241.399 219.394,240.211 219.07,239.347 C 218.566,238.445 213.779,237.042 211.512,236.394 L 211.512,236.394 z" />

	<path
   id="path39"
   style="fill:#78605c;fill-rule:evenodd;stroke:#000000;stroke-width:0.036;stroke-miterlimit:10"
   d="M 76.511,102.15 C 75.107,106.362 73.019,110.394 70.391,114.642 C 67.619,118.854 64.991,122.418 60.563,127.134 C 55.955,131.85 48.755,138.114 43.535,142.326 C 38.279,146.466 33.023,149.994 29.423,151.362 C 25.715,152.442 23.087,151.542 21.971,149.49 C 20.819,147.366 21.503,144.234 22.763,139.122 C 23.843,133.938 25.607,127.386 29.171,118.89 C 32.699,110.25 38.171,97.83 44.075,88.038 C 49.799,78.174 56.315,68.994 64.019,60.642 C 71.759,52.146 80.399,44.37 90.083,38.286 C 99.623,32.202 109.667,28.062 121.187,24.75 C 132.635,21.402 147.539,19.458 158.699,18.63 C 169.752,17.766 178.031,18.63 187.428,19.962 C 196.752,21.258 206.039,22.41 214.319,26.334 C 222.421,30.114 230.52,37.134 236.135,43.074 C 241.608,49.014 243.516,55.098 247.547,61.722 C 251.543,68.346 256.512,76.05 260.074,82.458 C 263.459,88.65 265.367,91.962 268.031,99.198 C 270.658,106.326 274.078,117.81 275.771,125.298 C 277.283,132.678 277.57,138.474 277.607,143.658 C 277.714,148.734 277.138,152.802 276.023,155.862 C 274.763,158.922 272.675,161.658 270.154,161.982 C 267.49,162.234 264.252,161.514 260.578,157.482 C 256.871,153.342 252.623,145.674 248.375,137.538 C 244.092,129.258 239.699,118.89 235.055,108.522 C 230.34,98.118 225.371,87.39 220.151,75.798 L 220.151,75.798 C 222.348,72.522 223.86,68.31 224.688,63.306 C 225.407,58.05 225.12,47.898 224.94,45.486 C 224.76,43.074 224.004,46.71 223.643,49.446 C 223.176,52.182 223.463,57.186 222.276,61.974 C 220.979,66.654 219.684,72.63 216.155,77.418 C 212.555,82.134 208.2,86.058 200.747,90.162 C 193.116,94.23 180.589,98.838 170.94,101.61 C 161.184,104.13 153.12,105.174 143.003,105.858 C 132.815,106.47 119.963,106.11 110.567,105.606 C 101.099,105.174 93.251,104.418 86.879,102.942 C 80.399,101.322 76.583,98.406 72.371,95.85 C 68.051,93.078 62.975,87.534 61.607,86.994 C 60.239,86.454 63.047,91.098 64.343,92.754 C 65.567,94.266 67.331,95.022 69.347,96.57 C 71.399,98.082 73.739,99.99 76.511,102.15 L 76.511,102.15 z" />

	<path
   id="path41"
   style="fill-rule:evenodd;stroke:#000000;stroke-width:0.036;stroke-miterlimit:10"
   d="M 40.943,137.178 C 41.879,135.63 47.351,132.21 50.015,129.978 C 52.535,127.71 53.687,126.594 56.387,123.858 C 58.943,120.978 64.415,113.994 65.711,113.202 C 66.863,112.338 65.639,116.334 63.839,119.07 C 61.823,121.698 58.115,126.126 54.803,129.438 C 51.527,132.786 46.667,137.322 44.399,138.762 C 41.987,139.986 40.007,138.618 40.943,137.178 L 40.943,137.178 z" />

	<path
   id="path43"
   style="fill-rule:evenodd;stroke:#000000;stroke-width:0.036;stroke-miterlimit:10"
   d="M 35.327,142.434 C 35.579,142.83 36.659,142.542 37.739,141.858 C 38.819,141.138 39.503,140.238 39.251,139.878 C 38.999,139.482 37.919,139.77 36.839,140.454 C 35.759,141.174 35.075,142.074 35.327,142.434 L 35.327,142.434 z" />

	<path
   id="path45"
   style="fill-rule:evenodd;stroke:#000000;stroke-width:0.036;stroke-miterlimit:10"
   d="M 75.467,89.442 C 77.483,90.81 83.351,94.41 88.211,96.354 C 92.927,98.226 97.787,99.882 103.907,100.89 C 110.027,101.826 121.583,102.006 124.391,101.97 C 126.983,101.826 123.023,100.602 119.603,100.098 C 116.039,99.594 108.407,99.522 103.655,98.766 C 98.831,97.866 94.475,96.246 90.875,95.022 C 87.239,93.726 84.179,92.214 81.839,91.062 C 79.355,89.73 77.303,87.93 76.259,87.606 C 75.071,87.318 73.559,87.93 75.467,89.442 L 75.467,89.442 z" />

	<path
   id="path47"
   style="fill-rule:evenodd;stroke:#000000;stroke-width:0.036;stroke-miterlimit:10"
   d="M 97.787,92.106 C 98.111,93.222 100.199,97.11 101.531,98.766 C 102.719,100.314 104.663,101.934 104.987,101.682 C 105.131,101.358 103.727,98.838 102.863,97.182 C 101.963,95.49 100.703,92.646 99.911,91.854 C 98.975,90.99 97.571,90.882 97.787,92.106 L 97.787,92.106 z" />

	<path
   id="path49"
   style="fill-rule:evenodd;stroke:#000000;stroke-width:0.036;stroke-miterlimit:10"
   d="M 92.459,93.69 C 92.495,94.41 93.539,96.39 94.619,97.686 C 95.591,98.802 97.715,100.89 98.075,100.638 C 98.327,100.35 96.419,97.218 95.951,96.102 C 95.267,94.806 95.195,93.87 94.619,93.438 C 93.971,92.97 92.459,93.006 92.459,93.69 L 92.459,93.69 z" />

	<path
   id="path51"
   style="fill-rule:evenodd;stroke:#000000;stroke-width:0.036;stroke-miterlimit:10"
   d="M 155.243,96.57 C 159.562,94.59 172.306,90.45 179.722,87.498 C 187.066,84.366 193.402,81.45 198.874,78.462 C 204.13,75.366 208.343,72.162 211.653,69.678 C 214.893,67.194 217.053,64.818 218.565,64.098 C 220.042,63.45 221.266,63.99 220.438,65.43 C 219.393,66.762 216.081,69.39 212.985,71.802 C 209.854,74.106 206.542,76.41 202.077,79.254 C 197.362,81.918 191.493,85.59 185.591,88.326 C 179.47,90.954 172.054,93.618 166.691,95.49 C 161.326,97.326 156.142,98.946 154.199,99.234 C 152.219,99.342 150.995,98.586 155.243,96.57 L 155.243,96.57 z" />

	<path
   id="path53"
   style="fill-rule:evenodd;stroke:#000000;stroke-width:0.036;stroke-miterlimit:10"
   d="M 156.863,52.146 C 160.176,51.318 168.814,50.778 176.267,50.526 C 183.79,50.346 193.943,50.166 201.287,50.814 C 208.451,51.282 216.012,52.722 219.107,53.73 C 222.095,54.666 221.158,56.466 219.359,56.646 C 217.414,56.682 213.42,54.774 208.199,54.27 C 202.906,53.658 194.951,53.154 188.508,53.19 C 181.955,53.118 175.33,53.658 169.895,53.982 C 164.495,54.162 158.448,55.026 156.323,54.774 C 154.091,54.414 153.479,52.794 156.863,52.146 L 156.863,52.146 z" />

	<path
   id="path55"
   style="fill-rule:evenodd;stroke:#000000;stroke-width:0.036;stroke-miterlimit:10"
   d="M 164.314,27.918 C 168.13,29.286 184.043,31.194 193.043,34.326 C 201.898,37.458 212.699,44.586 217.234,46.53 C 221.554,48.259 220.906,46.206 219.611,44.946 C 218.172,43.578 214.066,41.166 209.242,38.826 C 204.275,36.378 197.146,32.706 190.631,30.582 C 184.078,28.386 175.115,26.19 170.688,25.794 C 166.15,25.254 160.643,26.478 164.314,27.918 L 164.314,27.918 z" />

	<path
   id="path57"
   style="fill-rule:evenodd;stroke:#000000;stroke-width:0.036;stroke-miterlimit:10"
   d="M 227.891,53.19 C 229.33,55.314 235.596,61.254 238.764,65.178 C 241.715,68.994 244.127,74.25 245.711,76.086 C 247.295,77.778 248.734,77.598 248.088,75.546 C 247.26,73.35 243.768,67.41 240.924,63.558 C 237.863,59.598 232.68,54.162 230.52,52.398 C 228.287,50.634 226.486,51.03 227.891,53.19 L 227.891,53.19 z" />

	<path
   id="path59"
   style="fill-rule:evenodd;stroke:#000000;stroke-width:0.036;stroke-miterlimit:10"
   d="M 228.684,68.346 C 229.799,69.39 234.588,76.014 236.928,80.586 C 239.158,85.086 241.211,91.854 242.256,95.49 C 243.082,98.982 242.615,100.782 242.508,101.862 C 242.291,102.798 242.256,103.734 241.428,101.61 C 240.455,99.378 239.41,93.69 237.467,89.118 C 235.451,84.438 231.49,77.706 230.016,74.214 C 228.539,70.722 227.494,67.194 228.684,68.346 L 228.684,68.346 z" />

	<path
   id="path61"
   style="fill-rule:evenodd;stroke:#000000;stroke-width:0.036;stroke-miterlimit:10"
   d="M 253.162,140.706 C 254.027,142.758 257.807,149.346 260.074,152.154 C 262.199,154.854 264.611,156.582 266.195,157.194 C 267.634,157.662 269.074,156.294 269.111,155.862 C 268.966,155.538 267.347,155.79 266.195,155.07 C 265.007,154.17 263.494,152.658 262.199,150.822 C 260.76,148.878 259.066,145.746 257.951,143.91 C 256.799,142.002 255.683,140.13 254.998,139.662 C 254.1,139.014 252.336,138.618 253.162,140.706 L 253.162,140.706 z" />

	<path
   id="path63"
   style="fill-rule:evenodd;stroke:#000000;stroke-width:0.036;stroke-miterlimit:10"
   d="M 270.479,155.538 C 270.803,155.862 271.811,155.43 272.747,154.53 C 273.685,153.666 274.188,152.658 273.899,152.334 C 273.575,152.01 272.567,152.442 271.631,153.342 C 270.658,154.206 270.154,155.214 270.479,155.538 L 270.479,155.538 z" />

	<path
   id="path65"
   style="fill-rule:evenodd;stroke:#000000;stroke-width:0.036;stroke-miterlimit:10"
   d="M 217.234,35.586 C 217.451,32.922 219.359,26.586 219.898,22.266 C 220.115,17.766 218.962,11.898 219.359,9.522 C 219.646,7.074 221.591,6.858 222.275,7.902 C 222.923,8.946 223.283,11.934 223.355,15.606 C 223.283,19.242 222.923,25.29 222.275,29.178 C 221.519,32.85 219.863,36.846 219.107,37.962 C 218.242,38.97 217.02,38.178 217.234,35.586 L 217.234,35.586 z" />

	<path
   id="path67"
   style="fill-rule:evenodd;stroke:#000000;stroke-width:0.036;stroke-miterlimit:10"
   d="M 223.895,37.71 C 225.731,35.046 231.852,30.258 235.307,26.262 C 238.547,22.122 241.356,18.09 243.588,13.77 C 245.639,9.342 247.043,2.538 248.375,0.738 C 249.635,-0.918 252.082,0.378 251.543,3.654 C 250.932,6.75 247.836,14.058 244.883,19.35 C 241.86,24.642 237.035,30.942 233.723,34.758 C 230.303,38.43 226.272,40.518 224.688,41.166 C 222.887,41.562 222.203,40.23 223.895,37.71 L 223.895,37.71 z" />

	<path
   id="path69"
   style="fill-rule:evenodd;stroke:#000000;stroke-width:0.036;stroke-miterlimit:10"
   d="M 232.139,42.75 C 233.723,41.13 237.108,37.35 241.176,35.838 C 245.1,34.326 253.487,33.75 255.791,33.966 C 257.914,34.146 256.547,36.414 254.459,37.17 C 252.154,37.818 246.359,36.882 243.047,38.25 C 239.807,39.546 237.18,43.974 235.307,45.162 C 233.436,46.278 232.284,45.162 231.852,44.874 C 231.238,44.514 230.555,44.082 232.139,42.75 L 232.139,42.75 z" />

	<path
   id="path71"
   style="fill-rule:evenodd;stroke:#000000;stroke-width:0.036;stroke-miterlimit:10"
   d="M 107.507,331.325 C 109.343,332.802 114.059,335.321 118.595,337.086 C 122.951,338.777 129.035,340.073 133.787,341.117 C 138.467,342.017 144.767,342.594 146.567,342.449 C 148.223,342.126 146.531,340.577 143.867,339.75 C 140.987,338.958 134.723,338.886 130.079,337.733 C 125.399,336.473 119.963,334.241 116.255,332.693 C 112.511,331.109 109.199,328.841 107.831,328.661 C 106.283,328.338 105.707,329.922 107.507,331.325 L 107.507,331.325 z" />

	<path
   id="path73"
   style="fill-rule:evenodd;stroke:#000000;stroke-width:0.036;stroke-miterlimit:10"
   d="M 150.671,340.47 C 150.131,340.614 149.699,341.369 149.915,341.909 C 150.023,342.413 151.103,343.097 151.643,343.134 C 152.039,342.989 152.687,341.55 152.615,341.19 C 152.363,340.649 151.067,340.361 150.671,340.47 L 150.671,340.47 z" />

	<path
   id="path75"
   style="fill-rule:evenodd;stroke:#000000;stroke-width:0.036;stroke-miterlimit:10"
   d="M 102.467,324.953 C 101.999,325.061 101.531,325.926 101.747,326.43 C 101.855,326.934 102.971,327.618 103.439,327.654 C 103.835,327.51 104.483,326.07 104.411,325.711 C 104.159,325.098 102.863,324.846 102.467,324.953 L 102.467,324.953 z" />

</g>
  </g>
</svg>
